<mxfile host="app.diagrams.net" agent="Mozilla/5.0 (X11; Linux x86_64) AppleWebKit/537.36 (KHTML, like Gecko) Chrome/134.0.0.0 Safari/537.36" version="26.1.3">
  <diagram name="Page-1" id="oTS0C0JRYe0wfn55Ok-N">
    <mxGraphModel dx="1562" dy="824" grid="1" gridSize="10" guides="1" tooltips="1" connect="1" arrows="1" fold="1" page="1" pageScale="1" pageWidth="850" pageHeight="1100" math="0" shadow="0">
      <root>
        <mxCell id="0" />
        <mxCell id="1" parent="0" />
        <mxCell id="34BbgepE6EwfN94hA98I-23" value="cosmos-validator-watcher chart" style="rounded=1;whiteSpace=wrap;html=1;labelPosition=center;verticalLabelPosition=top;align=center;verticalAlign=bottom;" vertex="1" parent="1">
          <mxGeometry x="329.25" y="162" width="460.75" height="161" as="geometry" />
        </mxCell>
        <mxCell id="34BbgepE6EwfN94hA98I-22" value="Separate cosmos node chart" style="rounded=1;whiteSpace=wrap;html=1;labelPosition=center;verticalLabelPosition=top;align=center;verticalAlign=bottom;" vertex="1" parent="1">
          <mxGeometry x="258" y="372" width="170" height="170" as="geometry" />
        </mxCell>
        <mxCell id="34BbgepE6EwfN94hA98I-7" value="&lt;font style=&quot;font-size: 16px;&quot;&gt;Kubernetes application&lt;/font&gt;" style="text;html=1;align=center;verticalAlign=middle;whiteSpace=wrap;rounded=0;" vertex="1" parent="1">
          <mxGeometry y="4" width="205" height="30" as="geometry" />
        </mxCell>
        <mxCell id="34BbgepE6EwfN94hA98I-8" value="Deployment configuration" style="rounded=1;whiteSpace=wrap;html=1;labelPosition=center;verticalLabelPosition=top;align=center;verticalAlign=bottom;" vertex="1" parent="1">
          <mxGeometry x="20" y="92" width="135" height="110" as="geometry" />
        </mxCell>
        <mxCell id="34BbgepE6EwfN94hA98I-14" style="edgeStyle=orthogonalEdgeStyle;rounded=0;orthogonalLoop=1;jettySize=auto;html=1;entryX=0;entryY=0.5;entryDx=0;entryDy=0;" edge="1" parent="1" source="34BbgepE6EwfN94hA98I-4" target="34BbgepE6EwfN94hA98I-10">
          <mxGeometry relative="1" as="geometry">
            <Array as="points">
              <mxPoint x="280" y="146" />
              <mxPoint x="280" y="253" />
            </Array>
          </mxGeometry>
        </mxCell>
        <mxCell id="34BbgepE6EwfN94hA98I-15" value="apply" style="edgeLabel;html=1;align=center;verticalAlign=middle;resizable=0;points=[];" vertex="1" connectable="0" parent="34BbgepE6EwfN94hA98I-14">
          <mxGeometry x="0.7561" y="1" relative="1" as="geometry">
            <mxPoint x="-76" y="-47" as="offset" />
          </mxGeometry>
        </mxCell>
        <mxCell id="34BbgepE6EwfN94hA98I-4" value="" style="shape=image;verticalLabelPosition=bottom;labelBackgroundColor=default;verticalAlign=top;aspect=fixed;imageAspect=0;image=data:image/png,iVBORw0KGgoAAAANSUhEUgAAARgAAAEYCAYAAACHjumMAAAqIUlEQVR4nOzdCVxU5f4/8K+AgOw5QwKyGOZBxYVAzcHbrTC1ZVy6/qC8LXhLk8pbimmlFtJPy6s50f/aldQWsrLg181lWlwwqyvjNlw3FMYkWQSUGWNxRkDU/+uZGZBlBmY55zwzZ77v16sX3FnO+d4430/P2Z7jcfPmTUDCVqVu7luoaggBgDAACJEr1Lcbfyc/A+UKtQgAfAGgPwD0AwB/APA2/rREIwA0GX9eBYDLAKCVSsQaAKgHADUAVEol4ksAUENKimcCasLEXtc4/r+OKOuDASMs8oJaf1WlLgEARstyy+8BgFgAGAIA7rRr6+I6AJwFgKL0lMhfAeA4E+6jlCYGN9IuDLEHA8ZJqSq0PqoKXaxcoR4LAEOVqoZh1ZqWGAAYCAButOuz0Q0AuBAq8ixJYALOAECxVCI+wkT4FDERvjraxSHrYcA4EVlu2XhFUf0URVH9JACYQLsenh2QxAbukcQG7kpPiTpIuxhkGQwYB6UsafCr1jSPkSvUiUpVw33VmhYyUgmiXZeDqAsVeR5JYAL2SyXiglCR19GEmIArtItC3WHAOBBFUZ2Hoqh+miy3/G8A8IDxQCvqXRMA7E1PifxEEhu4QxIb1Eq7IGSAAUOZvKB2kFLVOFmuqJ1RrWm5H0PFbtpQkecvUknwtgTGf7c0Mfg87YJcGQYMz1QV2r77j/0xqVDV+KBcoZ4MADG0axK4EqlEvDue8f/+vrjb8pkIXzw1ziMMGJ6oKrT+aeuKl6oqdfMBwI92PS7qChPusz570dC3mQhfPB3OAwwYDqkqtN5b8y9O/fnYH8mqSt0UAAigXRPSa2DCfXbdG3db3qyJA3YyEb5NtAsSKgwYDiiK6ryXbTq3WFWpW4KjFYdHRjVrVs0dvFYSG4RBwzIMGBZt3Fk5Wq5QLyhUNSYbL71HzkMbz/jnSSXirOemhh+nXYxQYMCwQF5QOzJNVrwGAB6kXQtixY/Z6UOXSBODT9IuxNlhwNhIVaF125p/8dGfj/3xN+PxFQ/aNSFWtRqP03wya+KAb5kI3xu0C3JGGDBWUpY0BGXmlL5cqGpMA4AQ2vUgXtTEM/7ZGanR7yfEBNTRLsaZYMBYiIxYlm0+97SiqP4dDBaXVSOJDXx91ZzBn+GIxjIYML2oUjd7fbWvZubW/JqXqzUt42jXg+gLFXkenjUx5P3Hk0K+CRN7NdOux5FhwPRAlls2QpZbvgUA4mjXghzSsfSUyKfSU6JO0S7EUWHAmKAsaQjLzCl9p1DV+IQDTtSEHMv1eMb/i4zU6NcTYgKqaBfjaDBgukjOOPG4oqh+PQCIaNeCnIpGEhs4Py9z1Fe0C3EkGDBGstyy8Vvza1ZUa1qm0K4FOa9QkeeuWRNDVuCkWAYuHzDygtrhmTmlq6s1LVNp14KEI1TkuTMjNfo1aWLwadq10OTSAZO0QLlYValbQ7sOJFxMuM+SfVkJa2nXQYuzTg5tF3lBbdjYeYe2YLggrpFtjGxrZJujXQsNLjeCkX1d9rAsr/wbnDkO8awpPTlyZvpjUd/TLoRPLhMwypKGAYs3nF2hqtQ9AwCetOtBLqmFCff5eO3zQ1YkxARcpF0MH1wiYBRFdXcmZ5zcAwCDaNeCEACcz8scOUkSG/Qb7UK4JuiAqVI393krp/QVuUL9Fu4SIQfTJJWI33wzNfrdMLGXYJtQsAGjqtCGPLHy1KZqTYuUdi0ImRMq8pR/sXzEXCbCt4Z2LVwQZMDIvi67W5ZXvhenq0RO4kp6cuQD6Y9FHaJdCNsEFTBV6mb3t3JK58kV6lX4FETkZOqkEvGyN1OjPwwTe12nXQxbBBUwSQuUG1SVujTadSBkKybcJ3tfVsLztOtgiyACRl5QGynLLf9YVambSLsWhOzFhPvkp6dEPiNNDC6nXYu9nD5gVBXaoKSFhUcBYDDtWhBi0bl978WPYSJ8nXqKTqe+VUBeUDvkiZWn9mC4IAEaTLZtso3TLsQeTjuCSVt3JlWuUGfj9S1I4JqkEnFa9qJhObQLsYVTBkxyxomXFUX1WbTrQIgvktjABXmZo96nXYe1nC5g0tadWSlXqJfxuU6/fu4wblgAjIz2g6gB/cDHy6n3LAWn5nIL/F59Ff57thFOlF6hXQ5npBLxquxFw5bTrsMaThMwxseGrFMU1S/ga50BPu6QnhIFsx8KAw/3PnytFtmh8lITZHxyDnYduUy7FE5IYgOz8jJHLaRdh6WcImCq1M19pi87trla0/IMH+tzdwN48dEImDctHAJ98YGNzujHw2p454vzcO7CVdqlsC5U5Pnx9lVxc5zhHianCJikBcpXVJU63mYFk73IQMr9A/haHeJI6/WbMHftadhzVHijGSbcZ/G+rIR3adfRG4c+mEBGLsZpLVfxsb5APw/IWRqL4SIQZLf2gwVDIfm+22mXwjrSE6Q3SI/QrqUnDj2CGTvv0Ed87RZ59e0DX7wxAsYPx1uYhGjD9gpYteU87TJYR3aXjnx497O06zDHYQMmOePEe3we0F357GD9wdyeNDW1wk8/n4fjJ1xiMjKn4OvbF5LuuwNihwf3+tnN312AFZ+U8lIXnxz5wK9DBgzfp6LjGX/4dmWc/uCuKVXVjbAu6yB8/X9FcOVKC19lISsMHyaG555NgNlPje7xc0IdyTjqKWyHCxgaF9Fl/Z2B/7nX9HGXY8dr4JEZW0Gru8ZnSchGkx+Ihs8+mgHe3ubP/i1cXwJ5+y/xWhcfHPFiPIc6yJu27kwq3+Hi188dpow1/ZRYMnJJnbMdw8WJ7N5bCs/M2wHXrpmfUmXVnDsFeeCX9A7pIdp1dOQwASMvqB1ivLeIVw/dLQZ/H9P/tZv7ghzKyuv5LgnZ6fsff4O33v7F7Ps+3u7w3vwYQYYM6SFHukHSIQJGVaENyswp/ZLGjYuTxvQ3+frBw5VwoKCC73IQS9ZvOAJvZP7kiiMZb9JLpKdoFwKOEDDygtrIpIWFR6s1LWNorP9PI03/HX7YJfgnSgjazZsA//zXEf0ublNTq8nPtI1klj0lrKfZkF4iPUV6i3Yt1ANGllv+Mc35XALM3ApQVoa7RkJAdpemJ39tNmSI56dHwIq/RfNaFw8GG3uLKmo32lSpm92fXHlqvaNOc9l6/UaP73+6aRpvtSDTPsg+CkeUVb1+7tDhC/oDvx9/OM3s2aU5jwyEa603BHUKm/RW0gLlhs+Xj5hPayJxagHzVk7pPEeeoNvD3EUxRjOmDeWtFmTath0lcERp2WfbRjLb8x4zGzJkJKOq0AnqFDbpsbdySk9mLxr2Lxrrp7KLJMstG298tAhCvGkbybjagV/Sa6TnaKyb94BRVWhDZLnle/C5RYgGFz2FHUR6jvQe3yvmNWCq1M19nlh5ahM+cRHR5KKnsP1I7/F99zWvAfNWTukr+KxoRJurnsImvUd6kM918hYwiqK6O+UK9Vt8rQ+h3rjiKWzSg6QX+VofLwGjLGkYkJxxcg8+YgQ5mrYDvz2FzJxHBgppJONNepH0JB8r4yVgFm84uwIABPMXQsJi6UhGQMdkBhl7knOcB4wst+xhVaWOl1npELKVq53CJj1JepPr9XAaMPKC2jBZbvk3AODJ5XoQYoOLncL2JL1JepTLlXAaMJk5pf/A4y7ImbjYKWxvY49yhrOASVqgXFytaXmSq+UjxAVXO4VNepT0KlfL5yRg5AW1w1WVujVcLBshPrjSKWzSq6RnuVg2JwGTmVO6movlIsQnVzqFzVXPsh4wsq/L7q7WtExle7kI0eAqp7BJz5LeZXu5rAfM1n01mWwvEyGaXOUUNhe9y2rAJGeceLxa0zKFzWUi5Ahc4RQ26V3Sw2wuk7WAUZY0hCmK6teztTyEHI2lp7DNTSTvDEgPk15ma3msBUxmTunbAGD6AUMICYClp7A3L4mFe0Y57XRHImMvs4KVKTNluWUjClWNeM2LjbbtKIbiEg3tMqibMS0GhsaIaZfRq96m33R3A1j8eBT8eqKOSn32Ir0syy17Nz0l6pS9y7I7YKrUzV6y3PIt5N+rvctyVdt2lMC2nSW0y6BuaIzIKQIGLJhIPJ4JgCnjRLDrsFP+h8Od9PTjSSHjw8RezfYsyO5dpK/ya2YCQJy9y0HIWm5uvE7O1g0ZyTz97Haz76+Y7dQX4cUZe9sudgWMqkLrtnVfzcv2FoGQLYYPD6ZdAuzeew4+3XLM5HsRt3vDyGjnnR2W9DbpcXuWYdeXl20+93S1pmWcPctAyFbTHmFol6C38aNCs+/dNcSf11rYRHqb9Lg9y7A5YJQlDYGKovp37Fk5QvZghohg7TsPgIcH3QeUnj6jhopK008CjQ7tx3s9bCI9Tnrd1u/b/JfJzCldAAC8PwYBoY7mPhMPX30+E4YPo3tw+PiJiyZfD+nv9FMhhRh73SY2nUUi+2WFqkaHfSqjs3GW07Ncs/XfwQP336H/54iyCvb/ch6ut95kvbbiEnWPZ/paW00/arifF/XHv9uN9LqqQvu/TIRvz89TNsGmgNmaX/Mojl7Yg4+hZcfYhDD9P1zYtqPYpksJfLwFcfVGCOn5jNmDv7H2izbF68/H6v5my/cQQs7J1p63OmDkBbUjVZU6vKERIRdCep70vrXfszpg0mTFa9i6xQAh5DQ8jL1vFasCZuPOytEA8KC1K0EICcKDxgywmFUBI1eobT5dhRByftZmgMUBoyiq8y5UNSbbVBVCSBBIBpAssPTzFgfMsk3nFgOAr82VIYSEwNeYBRaxKGBUFVpvVaVuiV1lIYQEgWQByQRLPmtRwGzNr5kKAM57WyhCiE1+xkzolUWnm38+VofHXjiEM9qxb2iMCK+Q5pAxE/J6+1yvAaOq0PrjhXXcwhnt2DdjagwGDIdIJpBsYCJ8G3v6XK+7SGnripcCQACr1SGEnF2AMRt61GPAqCq0fVWVuvmsloUQEgSSDSQjevpMjwGz/9gfk/DgLkLIDL/9x/6Y2NMHegyYQlUj3haAEDKrUNX4cE/v9xgwcoV6MusVIYQEo7eMMHsWSV5QOwgAYjipCnWCM9qxb2gMPmSUJzEkK6SJwedNvWk2YJSqBhy98ARPpyJnRrJCmhi80dR7ZneR5Ar1DE6rQggJQk9ZYTJgFEV1HtWalvs5rQohJAjVmpY/k8ww9Z6ZgKmfBgAW35KNEHJpvsbM6MZkwMhyy3FSb4SQxcxlRreAUZY0+AHAA7xUhRASigeM2dFJt4Cp1jQn4O4RQshK3sbs6KRbwMgV6gm8lYQQEgxT2dF9F0nVcB9vFSGEBMNUdpjYRWoZy1tFCCHBMJUdnc5dy3LLxgNAEK9VIfgg+wgcOVpFuwxBGTsmDF5Mw/9W8iyIZEh6StTBthc6BYyiqB5nrqOAhAvOaIeEwJgh7QHj1uXNSVSqQggJQtcMaQ8YVYXWBwDwDBJCLPJw70O7BL5NMGaJXoeA0Y2gVhJCAhXo2+OMkoKkqtDFtv3eHjByhXoMtYoQQoKhVDW0X3DX8RgMTkqCELJbtaZleNvv7WeRlKqGYdQqcnEvpI3Rz2qH2BMW5k+7BJfVMUvaA6Za04JbOCXjxgykXQJCrOmYJfpdJHlBLYl73MoRQmwYaMwUQ8CoKnUJlj4IHyGEeuFmzJT2UBlNtx6EkMDoM0UfMLLc8ntoV4MQEo62TGkbwcTSLQchJDD6THGrUjf3BYAhtKtBCAnKEJItboWqhhAAcKddDUJIUNxJtpBdpFDalSCEBCmUBEw47SoQQoIU6iFXqPvTrsLV4Yx27MMZ7eiTK9TBHgAQQbsQV4cz2iGBGkh2kcS0q0AICdLtJGACaVeBEBKkQDe5Qi2iXQVCSHhItpARjC/tQhBCguRLAgbPIiGEuNDfAwD60a7C1eGMduzDGe0cQj8SMPiXoAxntEMC5U92kbxpV4EQEiRvNxzBIIQ44o/TZCKEOIMBgxDiDAYMQogzGDAIIc5gwCCEOIMBgxDijAftAtgWJvKC2Dt8wasvZieiz6+fO0glvc+I0nztBhT9roUqTTMvdfFFMAFDAkU2n4HpE4Jpl4JQuzCxF2QvGmbx57cfqIX09Sp94AiBIP4zP3yQL+x/PwHDBTk9sg2TbZls00JAAqaRdhH2WvcCAxG34x0PSBjItky2aQFoJAHTRLsKe/xpZCCMjPajXQZCrCLbNNm2nVyT049gHrobpxRGwiSAbVs/grlKuwp7BAd50i4BIU6IAvrSLsFeVz0A4DLtKuxx8+ZNk6+vXnsAVr97gLP1Bg1Yw9mykfOZPXcHAPnHBq+9MgFeWzyB9ZocwGUygtHSrsIeZvIFIUSf1k0qEWtoV4EQEh6SLWQEU0+7EISQINWTgLlEuwqEkCBdIgFzgXYVCCFBuuAmlYhraVeBEBIeki1kBFNNuxCEkCBVY8AghLhS7RbPBNQAwHXalSCEBOU6yRa3MLHXNQA4S7sahJCgnCXZ0jYfTBHlYhBCwqLPFH3ApKdE/kq7GoSQcLRlStsI5jjdchBCAqPPFH3AMOE+SgAQxiSgCCHabhgzxRAw0sTgRryiFyHEkgvGTLk16XeoyLOEakkIIUHomCXtAZPABJyhVhFCSDA6ZknHx5YU0ykHISQkoSLP022/tweMVCI+Qq0ihJBgJDAByrbf2wOGifDBi+0QQnbrmCUet1701QHAAQAQ5OzDXJsxNQZmTIvp9vprb+yDmpornV4LCfGD1f+b1O2z23aUwLad3Y+1vzBvDIwbE2ZVPabWa2o5FZUN8EbmfquW/emmaSZf3/LlScj/6fcevxszRASvLzG9iZmquaPkvwyDZa/eA2Fh/vDv7cWQNv87i+r19vKAd1YmwcxHh8GN6zdh4ZJd8O12PKfBkQPGLNHr9GxqSWzgHkVRPQaMDYbGiGHGtKHdXl/1j/9ATZfX/P08TX62uEQDYCJgSCiY+nxPTK3X1HKKTtdaHTDmaokID+w1YNKeSzD7fVM1t5k08Q7YtGEqXKrVwpKle+Gvj42A4cPEcPqMutd6P908DR6cfKc+vN7750GYnzYOA4YjJEM6/m+3Lm/u4r0iJBgJ8aH6xjdnKCOClJnDbVr2Sy/erf/56rJ8+HTLcdj0cSFED7qt1++RYCLh0tTcCg9O/QI+3FwIFZU4DTVXumZIp4BJT4k6CAB1vFeFBEO2ZjIEBXqZfG991kPg62v9g/JIMN0zIRJaW2/ADz/+1v667uq1Xr87Y6phtKRUVsP5ckOwXG1qtboGZJE6Y4a0c+v6iVCRJ55NQjbz9vaAuc/Ed3v94QfvhDEJ1h1HajP3WcPyfv71vH4kQgyKCoKKioZev/vneyL1P48WVrW/5u7ebbNHLDCVHR5dX0hgAvbLFepJvFWFbJb81zw4X2Z6uF9eTm834KUXx8FXeUX6A8igb+g+sGL5vTYtq29fN3g8OVb/+569t47vjBo5ANa+p+jxu8OHifXHhYgSleHxXyEhfnD5slM/Ldlhkezo+lq3KJdKxNw9bxWxioTL2d8um/ynuYXeJIX+/l6w4f893P6/H55yJzBDRDYta8id/dt3q4pVhgO6I4YHQ2XVrdFL0n2DoPLcAljz9sRO3x03ZmD77zUXDWenpj48BHbvPWdTLahnprKj2wgmVOSlBIAmMtrlrTIBe3b2XaC5rOv0mqi/DyvLvisuBIKDfbu9XlhY3b4rQcufJkTCpInRsCe/FP7+wjiblxN9x60DuReqGvQjGtnaybD49b3tr8+cMRT8/DzhicdHwpKl+e2vDx8W3P77pVotuLn1gYn336E/SIxY12TMjk667yLFBJCoJ389KW+lCVja3ATOlr3xA9N/orhxH5rddeLT318YC6L+/WDc2IE2L+OOQUHtv/9+vl5/LcuJkxfh+ImL7a9/s60Ypk8dCl9+fbLTd5kh/dt/1+muwXPPxsMv/ymHa9dwZhIO/GjMjk66BQwYZqP6RJZbjgGDLEZGCAEBXvqL2tr8KTESYjuMItoUl6j11w1Z4nbjCI2MyMjypz3CwNwX5J0+s2//eQgfnNXtu8HiWyPFqMhASP7LcJie/LVV/7+QZdJTIreYet3k4XRJbOAO424SQhaprdVB7v+d7vQa2SURiTrvDioLq/VXLFsqIjxA/1N7pQU+zp4KH336X/1opKMX5o2BuotLYOmSP3V6veMp8YUvjYfUOdvgypUWq/5/IYtojZnRjZmACWoNFXn+xHlZSFA+2HAEWno5uPz++kNWLTM42BBQJKh+OVCuH6109Zfphmtdpkwa3On1tnAivt1eDJUXGju9f/+9gyD3i5mw9/snYeO/pLDxg0fAx6evVfUh/enpX0hmmHrP5C4SGI4Ib9skr3qI08pcwN59pd3+q+nn5wkPJEXbvezXluebvHfnUq3O7mXbouSsBpYs3QNZ7z5o8v1vvj0DO75TdTr42ptgsWEX6fSZWpC9f9D0Z4y7URcvdf530Xa9S3lFPXzy2fEOr/eBdasnwdNPjgbVWY3+Ct+6+mb98bIRsbfD4SM4uaM1SFaYe89swCQwAbs3QRVnRbmK19/Ypz9t3NGQO/uzEjD5P/3ebdm0fbrlBKQ+FQd3jQ7p9HpDYzMsenW31csT9e+n//lHnfk99tuCDCc8ay5qTb5/6VLn16dPjYHZT8fpf1/5zq/6cBkUFai/YfXTz/AMk7VIVph7z/wIJjH4PMiKyc5y91uEkWCQXYJESYTJ9661XIcjSuv/I5P1z0OQs3l6p9c2bi7UN7I1yEij6zGcroICvfQHf4mOlwME+N86/nJF23kEmfrk6PbfJ08aDNJHGKiruwovLdrVfnp/Veb9sCwDjxJYoESfFWaYDRgwDH12yxVqDBgHtWL5vdDYaLppt+YVwc+/lPW6jDsGBcH322aZfO9SrRaYER9YXdf2nSVwquiSfneDaGm5Dv/aeNTq5fS/rV/77xqN6d2+jndmdzz4O3rUALPLvfeeKP3PEycvwkvpP5r8DBnRoN6RjOjp/R4DJp7x/16uUP+d9aoQKx55aIjZ95T/rbYoYLgyJ20n/LT7aejXry988dVJmy7P9/O7NQq5ceNmt/cDA730x01IEN7e5YLDifffod8tC/DvfOo8fKB/++9dRzZtZj81Cs4Ua6yu1xWRjOjp/R7v+rov7rZ88ndgvSokeMUqDcx6+t/6SaHe/sd/bFpGv363gqHJxB3Qy169R787dr7MMAGAyDjicXPro7+KePcewy0BHa+5eXT6rRFPaIh/t2XGMCJ4d/Vk2PLlCZtqdjFXjBlhVo8Bw0T4XmPCfdazXhZyCft/KdPf9Firtu2sVlDQrV2khsZbo41gsQ9kLP+zfreJLL/tuppHHmbgLzOGwkcfToXvfvgN1m84op/iISjIG/7nL8PhwUmD9fPVrFpteFIy2T1Mf3k8hIX6609pT58aoz929NyLciijeLOosyDZQDKip8/0uItEZC8a+nbSwsIXACCA1eoQ6oVvh2tSku4bBB9lTwWPvm5QX9+svy3g4CHD6eQNG4/qRzgzHx0GL70wTn9pwNr3CvS3BMxf+AO89soE/TUuZ4rVsOjVPVBwsBJOnroEz8yO03/+zaV/hrq6Jjh4uBLmzf+u020IyKwGkg29fajPzZvd9227SlqgzFVV6pLZqoxN2elDQZrY/bqK1WsPwOp38cZwZ6Y/bWw8G3XhQgN88tkxeDfL9LUwzowE4GuLu89UKy+ohTSZYz5NiAn3yduXlZDS2+csmnnn3rigPFaqQshGH+ccg1mPjWi/LgbRZWkmWBQwsyaG7MSDvYgm9WUdbNio1B9jQdRdMWZCrywKGCbCt4kJ91ljd1kI2ai+rhm+/PqU2YsCEX9IFpBMsOSzFk9Oumru4LUAYPpabIQ4oOly7YxOdw102msgFuFuEkVaYxZYxOKAkcQGNcUz/ngsBvHG1LSfBw5W6I/FIDpIBpAssPTzVk2vLpWIu8/qgxBHLl7sfthvz95SmP3UaCr1IOszwKqAeW5q+HEAMH3zBkIsu9jh7ui2eVpq1Tq4eQMgZED3uYgR5340ZoDFrH5ATHb60CUAgE+uQpxram6F8+cNtwEEBd16mNup05dg4EC87pNnrcbet4rVASNNDD7JhPvgI2YRL5T/rdb/DBlw676hpqZWGHA7jmD4RHqe9L6137PpEXf3xgV9Ysv3ELLWj7sNj4q9K+7WBFaDooLg6lUcRPPJ1p63KWBmTQz5FgBqbPkuQtbYtrNEf7f0PRMi9Qd3Fy+UwPi7w+F0cS3t0lxJjbHnrWZTwDARvjfiGf9sW76LkDWuXbuhnzN3995zsHrlRHgmNQ7+vvCHTgeAEbdIr5Oet+W7vd5NbU5GanTW9GXH08jusa3LQMgSNRe1kPLEN7TLcFU1pNdt/bJNIxgwPAGyXhIb+Lqt30cIOT7S46TXbf2+zQFDrJoz+LNQkedhe5aBEHJMpLdJj9uzDLsChuyXzUoKed+eZSCEHBPpbVuPvbSxK2CIxyeGkJ3jY/YuByHkUI4Ze9sudgdMmNirOT0l8ikA6PmZoQghZ3Gd9DTpbXsXZHfAgP7J+lGn4hn/z9lYFkKILtLLpKfZWBYrAQOG09ZLAQAfJoOQc9MYe5kVNl8H01VCTECVJDZwvqKofitby7THa4tNT6RsqdlztuuvIjWn7qLV930hJ7ZtRzHMnrvD7PufbprW6SmTzor0MOlltpbH2giGyMsc9VWoyJPXGyE1DT0+lgUhp8X3tk16l/Qwm8tkNWDAcGorg+1l9kRRhA/IQsLE97bNRe+yHjDpj0UdChV5WjTjOBvyCy9D+UWLZ/BDyCmQbZps23whPUt6l+3lsh4wYDjg+xoXyzXlavMNWLrpLF+rQ4gXZJsm2zZfuOpZTgJGmhh8mgn34e0o6P5jdTBj2XE4UtzA1yoR4gTZhsm2TLZpvpBeJT3LxbJZO4vU1b6shLVj5x0aVa1peZKrdXR0tKQBHl1+HMJEXhB7hy949bUsO7MXDeO8NuS6qtTN8FZOaa+fa752A4p+10KVxu5r26wSKvL8nPQqV8vnLGDAMOx6NU1W/D8A4M3lejoifyC+/0gImXPl6nWQK9S0yzCnifQolyvgZBepjTQxuCo9JXImALRwuR6EkNVaSG+SHuVyJZwGDBhuI/ieCff5mOv1IIQsR3qS9CbX6+E8YIi1zw9ZAQDn+VgXQqhX5409yTleAiYhJuBiXubISWSfj4/1IYTMaiK9SHqSj5XxEjBgeLb1b1KJ+E2+1ocQ6o70IOlFvtbHW8AQb6ZGvxsq8pTzuU6EkAHpPdKDfK6T14AJE3vd/GL5iLkA0P2p5gghLl0hvUd6kM+V8howYJjHtyY9JXISAPB3qSJCrq2O9BzpPb5XzHvAgOHU9UGpRLyMxroRcjWk10jP0Vg3p1fy9uTN1OgPVRW6kapKXRqtGuyxbUcx7RIQjw4f5fR6NM4w4T7ZpNdorZ9awISJva7vy0p4PmmBcoiqUjeRVh226ml2M4QcARPuk096jGYNVHaROkpPiXwGAM7RWn+DttXk61FRgbzXgpxXVGSQydd1zdQetnHO2FtUUQ8YaWJw+b734seEijyP0lj/f06aPtb80JQ7ea8FOafwgf4wcsTtJt8rLuf/If2kl0hPkd7ifeVdUA8YMJxZqstIjf4rjSt99xw1PWvY+HHhMCExgu9ykBN6YtZI8PAw3UonzvF+RUYT6SXSU3yv2BSHCBgwjGTOSiVi3g/4/nBIDY0607tJm/4lhahI3FVC5o0eOQCef26M2fd/Pf4Hr/WQHiK9xOtKe+AwAQOGyZ9yJLGBC/hc55Wr12HXEdOPcwoL9YeczdPB16cvnyUhJzFq5AD4bvssCAo0Pd3RXqUGfq/hb1BOeof0EG8rtIBDBQwYHn3yvlQiXsXnOj/bVQ3XzUx/Gjc6BI4UzIFnZ98Ffn6efJaFHFT4QH949ZVE2J6XAn6+prcJ7dXrkPnp77zVRHqG9A5vK7RQn5s3eb1y2GLJGSfeUxTV8zaaWfnsYJj9UFiPn2lqaoWffj4Px0/wciMqcjBeXu4wJiEMxo8bCH37uvf42Y07K+GtHH4CRhIbmJWXOWohLyuzksMGDDF23qGPqjUtvJxq83DvA1vfGAGSEaZPNyJkqZOljfDYipPQoOP+FHWoyPPjIx/e/SznK7KRw+0idbR9Vdwc49MJOJ9ys/X6TZjz7hlen0WDhGfXYbX+qQA8hEsL6Q3SI1yvyB4OPYJpk7RA+YqqUsfZzOddyV5kIOX+AXytDgnEv3+5BIs3qKD5Gvc9xYT7LN6XlcDr1Au2cIqAqVI395m+7NhmvnaX3N0AXnw0AuZNC4dAX2p3UyAnoam/Biu3lELe/ku8rI/sFpGRC99TL9jCKQKmDd8HfgN83CE9JUp/8NfDvQ9fq0VOQtd8Hb7cUwMfbKuA2jp+HlTvyAd0TXGqgCHS1p1ZKVeoeZ3qwa+fO4wbFgAjo/0gakA/8PFy6ENXiEO65hv650afKG2Eo8UNvBzIbSOViFdlLxq2nLcVssDpAgYMI5mXFUX1WbTrQIgvktjABY54nUtvnDJgwDCSSZUr1Nl8PjUSIQqapBJxmqNdoWsppw0YQl5QOyQzp/TLak2L+ZtBEHJSoSLPoxmp0X91pHuLrOXUAUOoKrRBSQsLjwLAYNq1IMSic/veix/jKHdF28rpj1aSP0B2+tAkJtwnn3YtCLGBbMv6bdrJwwWEMILpKGmBcoOzzvGLEBjn0KU9zSWbnH4E09Hny0fMl0rEL+IjUZATqiPbLtmGaRfCJkGNYNrIvi67W5ZXvhcA/GjXgpAFrqQnRz6Q/ljUIdqFsE2QAQOGg78hT6w8tala0yKlXQtC5oSKPOVfLB8xl8ZD0fggqF2kjsgfbPuquGlSiXgJjbl+EepFE9k2yTYq1HABIY9gOlIU1d2ZnHFyDwAMol0LQgBwPi9z5CRJbNBvtAvhmmBHMB2RP+T2VaPHM+E+2XzMLYOQGS1kGyTboiuEC7jKCKYj2ddlD8vyyr/BWwwQz5rSkyNnpj8W9T3tQvjkcgEDhlsMwjJzSv9RrWl5knYtSPhCRZ6fZ6RGvypNDHbOB1zbwSUDpk3SAuViVaVuDe06kHAx4T5L9mUl8DYbo6Nx6YABw2hmeGZO6epqTctU2rUg4QgVee7MSI1+TZoYfJp2LTS5fMC0keWWjd+aX7OiWtMyhXYtyHmFijx3zZoYsiI9Jeog7VocAQZMF8kZJx5XFNWvBwAR7VqQU9FIYgPn52WO+op2IY4EA8YEZUlDWGZO6TuFqsYnAKDnJ2whV3c9nvH/IiM1+vWEmACXO4jbGwyYHshyy0bIcsu3AEAc7VqQQzqWnhL5VHpK1CnahTgqDJheVKmbvb7aVzNza37Ny9WalnG060H0hYo8D8+aGPL+40kh34SJvZpp1+PIMGAspKrQui3bfO5pRVH9OwAQQrseREWNJDbw9VVzBn/GRPjeoF2MM8CAsZKypCEoM6f05UJVYxoGjcuoiWf8szNSo99PiAnAuYasgAFjIzKi2Zp/8dGfj/3xN1WlbgoA4CMghaWVCffZdW/cbZ/MmjjgWxyx2AYDhgXygtqRabLiNQDwIO1aECt+zE4fukSaGHySdiHODgOGRRt3Vo6WK9QLClWNyQDgS7seZBVtPOOfJ5WIs56bGn6cdjFCgQHDAUVRnfeyTecWqyp1S3DaTod3hQn3WbNq7uC1ktggnJiMZRgwHFJVaL235l+c+vOxP5KNx2kCaNeE9BqMx1fyZk0csJOJ8MVg4QgGDE9UFVr/tHXFS1WVuvk4qqGGjFbWZy8a+jYT4dtIuxhXgAHDM1WFtu/+Y39MLFQ1PixXqCcDQAztmgSuRCoR745n/L+/L+62fCbC9xrtglwJBgxl8oLaQUpV42S5onZGtablz3hw2G7aUJHnL1JJ8LYExn+3NDH4PO2CXBkGjANRFNV5KIrqp8lyy58ynvLGaT0t00SyOj0lcqskNnCHJDaolXZByAADxkEpSxr8qjXNY+QKdaJS1XBftaZlLAAE0a7LQdSFijyPJDAB+6UScUGoyOtoQkzAFdpFoe4wYJyILLdsvKKofoqiqH4SAEygXQ/PDkhiA/dIYgN34WROzgMDxkmpKrQ+qgpdrFLVmFCtaR6uVDUMq9a0xADAQCd+HM0NALgQKvIsSWACzoSKvE4nMP5KJsKniInw1dEuDlkPA0Zg5AW1/qpKXQIAjJbllt8DALEAMMQBJ866DgBnAaAoPSXyVwA4zoT7KKWJwXj6WEAwYFxAlbq5b6GqIQQAwgAgRK5Q3278nfwMlCvUIuPZq/4A0A8A/I0HmP0tXEWj8UAr+XkVAC4DgFYqEWsAoB4ALpEypBIx+VlDfo9nAmrCxF54yljg/n8AAAD///ILPNwaauMdAAAAAElFTkSuQmCC;" vertex="1" parent="1">
          <mxGeometry x="53.75" y="112" width="67.5" height="67.5" as="geometry" />
        </mxCell>
        <mxCell id="34BbgepE6EwfN94hA98I-9" value="Metrics service" style="rounded=1;whiteSpace=wrap;html=1;labelPosition=center;verticalLabelPosition=top;align=center;verticalAlign=bottom;fillColor=#fff2cc;strokeColor=#d6b656;" vertex="1" parent="1">
          <mxGeometry x="610" y="203" width="102.5" height="99" as="geometry" />
        </mxCell>
        <mxCell id="34BbgepE6EwfN94hA98I-5" value="Service" style="aspect=fixed;sketch=0;html=1;dashed=0;whitespace=wrap;verticalLabelPosition=bottom;verticalAlign=top;fillColor=#2875E2;strokeColor=#ffffff;points=[[0.005,0.63,0],[0.1,0.2,0],[0.9,0.2,0],[0.5,0,0],[0.995,0.63,0],[0.72,0.99,0],[0.5,1,0],[0.28,0.99,0]];shape=mxgraph.kubernetes.icon2;prIcon=svc" vertex="1" parent="1">
          <mxGeometry x="636.25" y="222" width="50" height="48" as="geometry" />
        </mxCell>
        <mxCell id="34BbgepE6EwfN94hA98I-10" value="Deployment" style="rounded=1;whiteSpace=wrap;html=1;labelPosition=center;verticalLabelPosition=top;align=center;verticalAlign=bottom;" vertex="1" parent="1">
          <mxGeometry x="400" y="203" width="126.5" height="99" as="geometry" />
        </mxCell>
        <mxCell id="34BbgepE6EwfN94hA98I-24" style="edgeStyle=orthogonalEdgeStyle;rounded=0;orthogonalLoop=1;jettySize=auto;html=1;exitX=0.5;exitY=1;exitDx=0;exitDy=0;exitPerimeter=0;entryX=1;entryY=0.5;entryDx=0;entryDy=0;" edge="1" parent="1" source="34BbgepE6EwfN94hA98I-6" target="34BbgepE6EwfN94hA98I-19">
          <mxGeometry relative="1" as="geometry" />
        </mxCell>
        <mxCell id="34BbgepE6EwfN94hA98I-25" value="connect" style="edgeLabel;html=1;align=center;verticalAlign=middle;resizable=0;points=[];" vertex="1" connectable="0" parent="34BbgepE6EwfN94hA98I-24">
          <mxGeometry x="-0.2171" y="2" relative="1" as="geometry">
            <mxPoint as="offset" />
          </mxGeometry>
        </mxCell>
        <mxCell id="34BbgepE6EwfN94hA98I-6" value="Pod" style="aspect=fixed;sketch=0;html=1;dashed=0;whitespace=wrap;verticalLabelPosition=bottom;verticalAlign=top;fillColor=#2875E2;strokeColor=#ffffff;points=[[0.005,0.63,0],[0.1,0.2,0],[0.9,0.2,0],[0.5,0,0],[0.995,0.63,0],[0.72,0.99,0],[0.5,1,0],[0.28,0.99,0]];shape=mxgraph.kubernetes.icon2;prIcon=pod" vertex="1" parent="1">
          <mxGeometry x="438.25" y="222" width="50" height="48" as="geometry" />
        </mxCell>
        <mxCell id="34BbgepE6EwfN94hA98I-12" style="edgeStyle=orthogonalEdgeStyle;rounded=0;orthogonalLoop=1;jettySize=auto;html=1;entryX=1;entryY=0.25;entryDx=0;entryDy=0;" edge="1" parent="1" source="34BbgepE6EwfN94hA98I-11" target="34BbgepE6EwfN94hA98I-4">
          <mxGeometry relative="1" as="geometry">
            <Array as="points">
              <mxPoint x="280" y="79" />
              <mxPoint x="280" y="129" />
            </Array>
          </mxGeometry>
        </mxCell>
        <mxCell id="34BbgepE6EwfN94hA98I-13" value="validate deployment" style="edgeLabel;html=1;align=center;verticalAlign=middle;resizable=0;points=[];" vertex="1" connectable="0" parent="34BbgepE6EwfN94hA98I-12">
          <mxGeometry x="0.2379" y="-1" relative="1" as="geometry">
            <mxPoint x="24" y="-26" as="offset" />
          </mxGeometry>
        </mxCell>
        <mxCell id="34BbgepE6EwfN94hA98I-11" value="Unit test" style="image;aspect=fixed;html=1;points=[];align=center;fontSize=12;image=img/lib/azure2/general/Load_Test.svg;" vertex="1" parent="1">
          <mxGeometry x="425" y="34" width="68" height="66" as="geometry" />
        </mxCell>
        <mxCell id="34BbgepE6EwfN94hA98I-16" style="edgeStyle=orthogonalEdgeStyle;rounded=0;orthogonalLoop=1;jettySize=auto;html=1;exitX=0.995;exitY=0.63;exitDx=0;exitDy=0;exitPerimeter=0;entryX=0.005;entryY=0.63;entryDx=0;entryDy=0;entryPerimeter=0;" edge="1" parent="1" source="34BbgepE6EwfN94hA98I-6" target="34BbgepE6EwfN94hA98I-5">
          <mxGeometry relative="1" as="geometry" />
        </mxCell>
        <mxCell id="34BbgepE6EwfN94hA98I-17" value="expose" style="edgeLabel;html=1;align=center;verticalAlign=middle;resizable=0;points=[];" vertex="1" connectable="0" parent="34BbgepE6EwfN94hA98I-16">
          <mxGeometry x="-0.1515" y="2" relative="1" as="geometry">
            <mxPoint x="9" y="2" as="offset" />
          </mxGeometry>
        </mxCell>
        <mxCell id="34BbgepE6EwfN94hA98I-19" value="Cosmos node rpc service" style="rounded=1;whiteSpace=wrap;html=1;labelPosition=center;verticalLabelPosition=top;align=center;verticalAlign=bottom;fillColor=#fff2cc;strokeColor=#d6b656;" vertex="1" parent="1">
          <mxGeometry x="291" y="422" width="102.5" height="99" as="geometry" />
        </mxCell>
        <mxCell id="34BbgepE6EwfN94hA98I-20" value="Service" style="aspect=fixed;sketch=0;html=1;dashed=0;whitespace=wrap;verticalLabelPosition=bottom;verticalAlign=top;fillColor=#2875E2;strokeColor=#ffffff;points=[[0.005,0.63,0],[0.1,0.2,0],[0.9,0.2,0],[0.5,0,0],[0.995,0.63,0],[0.72,0.99,0],[0.5,1,0],[0.28,0.99,0]];shape=mxgraph.kubernetes.icon2;prIcon=svc" vertex="1" parent="1">
          <mxGeometry x="317.25" y="441" width="50" height="48" as="geometry" />
        </mxCell>
        <mxCell id="34BbgepE6EwfN94hA98I-21" value="" style="endArrow=none;dashed=1;html=1;rounded=0;" edge="1" parent="1">
          <mxGeometry width="50" height="50" relative="1" as="geometry">
            <mxPoint x="20" y="332" as="sourcePoint" />
            <mxPoint x="840" y="332" as="targetPoint" />
          </mxGeometry>
        </mxCell>
      </root>
    </mxGraphModel>
  </diagram>
</mxfile>
